# xmcd CD database file
#
# Track frame offsets:
#	150
#	22428
#	45170
#	61056
#	81955
#	99522
#	119972
#	141178
#	159233
#	178358
#
# Disc length: 2667 seconds
#
# Revision: 0
# Processed by: cddbd v1.5.1PL0 Copyright (c) Steve Scherf et al.
# Submitted via: CDex 1.50
#
DISCID=8a0a690a
DTITLE=ジャー・パンシン - 空-心を青く染めるとき-
DYEAR=2004
DGENRE=Acoustic
TTITLE0=なごり雪
TTITLE1=夏の終わり
TTITLE2=桜
TTITLE3=悲しくてやりきれない
TTITLE4=喜看麦田千層波
TTITLE5=春景
TTITLE6=さとうきび畑
TTITLE7=田舎の生活
TTITLE8=神田川
TTITLE9=Jupiter
EXTD=YEAR: 2004
EXTT0=
EXTT1=
EXTT2=
EXTT3=
EXTT4=
EXTT5=
EXTT6=
EXTT7=
EXTT8=
EXTT9=
PLAYORDER=
